{"accessors":[{"bufferView":0,"componentType":5126,"count":208,"max":[4.113626480102539,1.0736535787582397,1.3803467750549316],"min":[-2.5809433460235596,-1.9433002471923828,-1.3803467750549316],"normalized":false,"type":"VEC3"},{"bufferView":1,"componentType":5126,"count":208,"max":[1.0,0.3749397099018097,0.555060088634491,1.0],"min":[-0.917126476764679,-0.6679814457893372,-0.5550697445869446,-1.0],"normalized":false,"type":"VEC4"},{"bufferView":2,"componentType":5126,"count":208,"max":[0.5410534143447876,0.8984835147857666,0.9983315467834473],"min":[-0.7993517518043518,-0.0991072952747345,-0.9983271956443787],"normalized":false,"type":"VEC3"},{"bufferView":3,"componentType":5126,"count":208,"max":[1.0,1.0],"min":[0.0,0.0],"normalized":false,"type":"VEC2"},{"bufferView":4,"componentType":5121,"count":312,"max":[207],"min":[0],"normalized":false,"type":"SCALAR"},{"bufferView":5,"componentType":5126,"count":342,"max":[4.593361854553223,-0.41570308804512024,1.3803467750549316],"min":[-2.828188180923462,-3.405923366546631,-1.3803467750549316],"normalized":false,"type":"VEC3"},{"bufferView":6,"componentType":5126,"count":342,"max":[1.0,0.335022509098053,0.5822345614433289,1.0],"min":[-0.9328047633171082,-0.9228655099868774,-0.5821443200111389,-1.0],"normalized":false,"type":"VEC4"},{"bufferView":7,"componentType":5126,"count":342,"max":[0.9548876285552979,0.9306392073631287,0.9835354685783386],"min":[-0.9663221836090088,-0.989809513092041,-0.9835399389266968],"normalized":false,"type":"VEC3"},{"bufferView":8,"componentType":5126,"count":342,"max":[1.0,1.0],"min":[0.0,0.0],"normalized":false,"type":"VEC2"},{"bufferView":9,"componentType":5123,"count":522,"max":[341],"min":[0],"normalized":false,"type":"SCALAR"},{"bufferView":10,"componentType":5126,"count":184,"max":[4.4658894538879395,-0.198842853307724,0.8110112547874451],"min":[-1.359589695930481,-3.699824810028076,-0.8110112547874451],"normalized":false,"type":"VEC3"},{"bufferView":11,"componentType":5126,"count":184,"max":[1.0,0.24896660447120667,0.3924996852874756,1.0],"min":[-0.8854361176490784,0.0,-0.3924613893032074,-1.0],"normalized":false,"type":"VEC4"},{"bufferView":12,"componentType":5126,"count":184,"max":[0.9645577073097229,0.7616701722145081,0.9949254989624023],"min":[-0.7627553343772888,-0.947298526763916,-0.9949230551719666],"normalized":false,"type":"VEC3"},{"bufferView":13,"componentType":5126,"count":184,"max":[1.0,1.0],"min":[0.9999997615814209,0.0],"normalized":false,"type":"VEC2"},{"bufferView":14,"componentType":5121,"count":276,"max":[183],"min":[0],"normalized":false,"type":"SCALAR"},{"bufferView":15,"componentType":5126,"count":96,"max":[4.672754287719727,-1.268355131149292,0.6785955429077148],"min":[-4.984992027282715,-3.699824810028076,-0.6785955429077148],"normalized":false,"type":"VEC3"},{"bufferView":16,"componentType":5126,"count":96,"max":[1.0,0.0,-1.5259021893143654e-05,1.0],"min":[1.0,0.0,-4.5778462663292885e-05,-1.0],"normalized":false,"type":"VEC4"},{"bufferView":17,"componentType":5126,"count":96,"max":[0.5829795002937317,0.1529420167207718,0.9957442283630371],"min":[-0.9098158478736877,-1.0,-0.9957388639450073],"normalized":false,"type":"VEC3"},{"bufferView":18,"componentType":5126,"count":96,"max":[1.0,0.5],"min":[0.0,0.0],"normalized":false,"type":"VEC2"},{"bufferView":19,"componentType":5121,"count":144,"max":[95],"min":[0],"normalized":false,"type":"SCALAR"},{"bufferView":20,"componentType":5126,"count":162,"max":[4.708619117736816,-0.4398132860660553,0.6785955429077148],"min":[-4.984992027282715,-3.699824810028076,-0.6785955429077148],"normalized":false,"type":"VEC3"},{"bufferView":21,"componentType":5126,"count":162,"max":[1.0,0.6556544899940491,0.2263522893190384,1.0],"min":[-0.7547711730003357,-0.37662774324417114,-0.22624404728412628,-1.0],"normalized":false,"type":"VEC4"},{"bufferView":22,"componentType":5126,"count":162,"max":[0.9999945759773254,0.923460066318512,0.995284378528595],"min":[-0.8467328548431396,-0.3747818171977997,-0.9952870607376099],"normalized":false,"type":"VEC3"},{"bufferView":23,"componentType":5126,"count":162,"max":[1.0000001192092896,1.0000001192092896],"min":[0.0,0.0],"normalized":false,"type":"VEC2"},{"bufferView":24,"componentType":5121,"count":246,"max":[161],"min":[0],"normalized":false,"type":"SCALAR"},{"bufferView":25,"componentType":5126,"count":150,"max":[4.585245132446289,-0.198842853307724,1.1929374933242798],"min":[-3.7325713634490967,-3.69907283782959,-1.1929374933242798],"normalized":false,"type":"VEC3"},{"bufferView":26,"componentType":5126,"count":150,"max":[1.0,0.0,0.40196049213409424,1.0],"min":[0.7456854581832886,-0.5313951969146729,-0.4018414616584778,-1.0],"normalized":false,"type":"VEC4"},{"bufferView":27,"componentType":5126,"count":150,"max":[1.0,0.9714329242706299,0.9941666126251221],"min":[-0.24343299865722656,-0.9858709573745728,-0.9941691756248474],"normalized":false,"type":"VEC3"},{"bufferView":28,"componentType":5126,"count":150,"max":[1.0000001192092896,1.0000001192092896],"min":[0.5028262734413147,0.0],"normalized":false,"type":"VEC2"},{"bufferView":29,"componentType":5121,"count":210,"max":[149],"min":[0],"normalized":false,"type":"SCALAR"},{"bufferView":30,"componentType":5126,"count":48,"max":[-2.076178550720215,-1.0224568843841553,0.5191958546638489],"min":[-4.851530075073242,-2.781843423843384,-0.5191958546638489],"normalized":false,"type":"VEC3"},{"bufferView":31,"componentType":5126,"count":48,"max":[1.0,0.0,-1.5259021893143654e-05,1.0],"min":[1.0,0.0,-4.5778462663292885e-05,-1.0],"normalized":false,"type":"VEC4"},{"bufferView":32,"componentType":5126,"count":48,"max":[0.5011024475097656,0.18340949714183807,0.9974760413169861],"min":[-0.30981242656707764,-0.8373392820358276,-0.997477650642395],"normalized":false,"type":"VEC3"},{"bufferView":33,"componentType":5126,"count":48,"max":[0.5302231907844543,0.0],"min":[0.0,0.0],"normalized":false,"type":"VEC2"},{"bufferView":34,"componentType":5121,"count":72,"max":[47],"min":[0],"normalized":false,"type":"SCALAR"},{"bufferView":35,"componentType":5126,"count":24,"max":[-2.616382598876953,-0.8289886713027954,0.41656357049942017],"min":[-4.640244483947754,-1.9973740577697754,-0.41656357049942017],"normalized":false,"type":"VEC3"},{"bufferView":36,"componentType":5126,"count":24,"max":[1.0,0.0,-1.5259021893143654e-05,1.0],"min":[1.0,0.0,-4.5778462663292885e-05,-1.0],"normalized":false,"type":"VEC4"},{"bufferView":37,"componentType":5126,"count":24,"max":[-0.06133993715047836,0.9253312945365906,0.5613794326782227],"min":[-0.5815932154655457,0.5887549519538879,-0.5613259673118591],"normalized":false,"type":"VEC3"},{"bufferView":38,"componentType":5126,"count":24,"max":[0.0,0.0],"min":[0.0,0.0],"normalized":false,"type":"VEC2"},{"bufferView":39,"componentType":5121,"count":36,"max":[23],"min":[0],"normalized":false,"type":"SCALAR"},{"bufferView":40,"componentType":5126,"count":498,"max":[21.758739471435547,5.872188091278076,14.04332160949707],"min":[18.316896438598633,3.146557331085205,10.848433494567871],"normalized":false,"type":"VEC3"},{"bufferView":41,"componentType":5126,"count":498,"max":[0.9999989867210388,0.9999986290931702,0.9999907612800598,1.0],"min":[-0.999995231628418,-0.999988317489624,-0.9999896287918091,-1.0],"normalized":false,"type":"VEC4"},{"bufferView":42,"componentType":5126,"count":498,"max":[0.9999998807907104,0.9988448023796082,0.999867856502533],"min":[-0.9999997019767761,-0.9999958276748657,-0.9999879002571106],"normalized":false,"type":"VEC3"},{"bufferView":43,"componentType":5126,"count":498,"max":[0.9875333905220032,0.990890383720398],"min":[0.007660028990358114,0.008484016172587872],"normalized":false,"type":"VEC2"},{"bufferView":44,"componentType":5123,"count":1800,"max":[497],"min":[0],"normalized":false,"type":"SCALAR"},{"bufferView":45,"componentType":5126,"count":24,"max":[0.5,0.5,0.5],"min":[-0.5,-0.5,-0.5],"normalized":false,"type":"VEC3"},{"bufferView":46,"componentType":5126,"count":24,"max":[1.0,0.0,1.0,1.0],"min":[-1.0,-1.5259254723787308e-05,-1.0,1.0],"normalized":false,"type":"VEC4"},{"bufferView":47,"componentType":5126,"count":24,"max":[1.0,1.0,1.0],"min":[-1.0,-1.0,-1.0],"normalized":false,"type":"VEC3"},{"bufferView":48,"componentType":5126,"count":24,"max":[1.0,1.0],"min":[0.0,0.0],"normalized":false,"type":"VEC2"},{"bufferView":49,"componentType":5121,"count":36,"max":[23],"min":[0],"normalized":false,"type":"SCALAR"}],"asset":{"generator":"Godot Engine v4.6.1.stable.official@14d19694e0c88a3f9e82d899a0400f27a24c176e","version":"2.0"},"bufferViews":[{"buffer":0,"byteLength":2496,"byteStride":12,"target":34962},{"buffer":0,"byteLength":3328,"byteOffset":2496,"byteStride":16,"target":34962},{"buffer":0,"byteLength":2496,"byteOffset":5824,"byteStride":12,"target":34962},{"buffer":0,"byteLength":1664,"byteOffset":8320,"byteStride":8,"target":34962},{"buffer":0,"byteLength":312,"byteOffset":9984,"target":34963},{"buffer":0,"byteLength":4104,"byteOffset":10296,"byteStride":12,"target":34962},{"buffer":0,"byteLength":5472,"byteOffset":14400,"byteStride":16,"target":34962},{"buffer":0,"byteLength":4104,"byteOffset":19872,"byteStride":12,"target":34962},{"buffer":0,"byteLength":2736,"byteOffset":23976,"byteStride":8,"target":34962},{"buffer":0,"byteLength":1044,"byteOffset":26712,"target":34963},{"buffer":0,"byteLength":2208,"byteOffset":27756,"byteStride":12,"target":34962},{"buffer":0,"byteLength":2944,"byteOffset":29964,"byteStride":16,"target":34962},{"buffer":0,"byteLength":2208,"byteOffset":32908,"byteStride":12,"target":34962},{"buffer":0,"byteLength":1472,"byteOffset":35116,"byteStride":8,"target":34962},{"buffer":0,"byteLength":276,"byteOffset":36588,"target":34963},{"buffer":0,"byteLength":1152,"byteOffset":36864,"byteStride":12,"target":34962},{"buffer":0,"byteLength":1536,"byteOffset":38016,"byteStride":16,"target":34962},{"buffer":0,"byteLength":1152,"byteOffset":39552,"byteStride":12,"target":34962},{"buffer":0,"byteLength":768,"byteOffset":40704,"byteStride":8,"target":34962},{"buffer":0,"byteLength":144,"byteOffset":41472,"target":34963},{"buffer":0,"byteLength":1944,"byteOffset":41616,"byteStride":12,"target":34962},{"buffer":0,"byteLength":2592,"byteOffset":43560,"byteStride":16,"target":34962},{"buffer":0,"byteLength":1944,"byteOffset":46152,"byteStride":12,"target":34962},{"buffer":0,"byteLength":1296,"byteOffset":48096,"byteStride":8,"target":34962},{"buffer":0,"byteLength":246,"byteOffset":49392,"target":34963},{"buffer":0,"byteLength":1800,"byteOffset":49640,"byteStride":12,"target":34962},{"buffer":0,"byteLength":2400,"byteOffset":51440,"byteStride":16,"target":34962},{"buffer":0,"byteLength":1800,"byteOffset":53840,"byteStride":12,"target":34962},{"buffer":0,"byteLength":1200,"byteOffset":55640,"byteStride":8,"target":34962},{"buffer":0,"byteLength":210,"byteOffset":56840,"target":34963},{"buffer":0,"byteLength":576,"byteOffset":57052,"byteStride":12,"target":34962},{"buffer":0,"byteLength":768,"byteOffset":57628,"byteStride":16,"target":34962},{"buffer":0,"byteLength":576,"byteOffset":58396,"byteStride":12,"target":34962},{"buffer":0,"byteLength":384,"byteOffset":58972,"byteStride":8,"target":34962},{"buffer":0,"byteLength":72,"byteOffset":59356,"target":34963},{"buffer":0,"byteLength":288,"byteOffset":59428,"byteStride":12,"target":34962},{"buffer":0,"byteLength":384,"byteOffset":59716,"byteStride":16,"target":34962},{"buffer":0,"byteLength":288,"byteOffset":60100,"byteStride":12,"target":34962},{"buffer":0,"byteLength":192,"byteOffset":60388,"byteStride":8,"target":34962},{"buffer":0,"byteLength":36,"byteOffset":60580,"target":34963},{"buffer":0,"byteLength":5976,"byteOffset":60616,"byteStride":12,"target":34962},{"buffer":0,"byteLength":7968,"byteOffset":66592,"byteStride":16,"target":34962},{"buffer":0,"byteLength":5976,"byteOffset":74560,"byteStride":12,"target":34962},{"buffer":0,"byteLength":3984,"byteOffset":80536,"byteStride":8,"target":34962},{"buffer":0,"byteLength":3600,"byteOffset":84520,"target":34963},{"buffer":0,"byteLength":288,"byteOffset":88120,"byteStride":12,"target":34962},{"buffer":0,"byteLength":384,"byteOffset":88408,"byteStride":16,"target":34962},{"buffer":0,"byteLength":288,"byteOffset":88792,"byteStride":12,"target":34962},{"buffer":0,"byteLength":192,"byteOffset":89080,"byteStride":8,"target":34962},{"buffer":0,"byteLength":36,"byteOffset":89272,"target":34963}],"buffers":[{"byteLength":89308,"uri":"car0.bin"}],"cameras":[{"perspective":{"yfov":1.3089969158172607,"zfar":4000.0,"znear":0.05000000074505806},"type":"perspective"}],"extensions":{"OMI_physics_shape":{"shapes":[{"capsule":{"height":2.5638427734375,"radius":0.8681640625},"type":"capsule"}]}},"extensionsUsed":["GODOT_single_root","OMI_physics_body","OMI_physics_shape"],"images":[{"uri":"textures%2F.png"},{"name":"cardboard_box_1","uri":"textures%2Fcardboard_box_1.png"},{"name":"cardboard_box_2","uri":"textures%2Fcardboard_box_2.png"}],"materials":[{"doubleSided":true,"name":"most_fur","pbrMetallicRoughness":{"baseColorFactor":[0.11953799426555634,0.09758730977773666,0.07618539035320282,1.0],"metallicFactor":0.0,"roughnessFactor":0.5}},{"doubleSided":true,"name":"fur_shadow","pbrMetallicRoughness":{"baseColorFactor":[0.09989870339632034,0.08228269964456558,0.06300999224185944,1.0],"metallicFactor":0.0,"roughnessFactor":0.5}},{"doubleSided":true,"name":"whitew_shadow","pbrMetallicRoughness":{"baseColorFactor":[0.6172069907188416,0.5394799709320068,0.3864290416240692,1.0],"metallicFactor":0.0,"roughnessFactor":0.5}},{"doubleSided":true,"name":"Material_001","pbrMetallicRoughness":{"baseColorFactor":[0.0,0.0,0.0,1.0],"metallicFactor":0.0,"roughnessFactor":0.5}},{"doubleSided":true,"name":"black","pbrMetallicRoughness":{"baseColorFactor":[0.010408099740743637,0.010408099740743637,0.010408099740743637,1.0],"metallicFactor":0.0,"roughnessFactor":0.5}},{"doubleSided":true,"name":"material_0","pbrMetallicRoughness":{"baseColorFactor":[0.768151044845581,0.6866859197616577,0.5332770347595215,1.0],"metallicFactor":0.0,"roughnessFactor":0.5}},{"doubleSided":true,"name":"ring_shadow","pbrMetallicRoughness":{"baseColorFactor":[0.03576039895415306,0.02642280049622059,0.014877798967063427,1.0],"metallicFactor":0.0,"roughnessFactor":0.5}},{"doubleSided":true,"name":"ringen","pbrMetallicRoughness":{"baseColorFactor":[0.0892573893070221,0.062018200755119324,0.025870399549603462,1.0],"metallicFactor":0.0,"roughnessFactor":0.5}},{"doubleSided":true,"name":"small_Cardboard_Box_Mat","normalTexture":{"index":2,"scale":1.0},"pbrMetallicRoughness":{"baseColorFactor":[1.0,1.0,1.0,1.0],"baseColorTexture":{"index":0},"metallicFactor":0.0,"metallicRoughnessTexture":{"index":1},"roughnessFactor":1.0}}],"meshes":[{"name":"Sketchfab_Scene_Plane_most fur_0","primitives":[{"attributes":{"NORMAL":2,"POSITION":0,"TANGENT":1,"TEXCOORD_0":3},"indices":4,"material":0,"mode":4}]},{"name":"Sketchfab_Scene_Plane_fur shadow_0","primitives":[{"attributes":{"NORMAL":7,"POSITION":5,"TANGENT":6,"TEXCOORD_0":8},"indices":9,"material":1,"mode":4}]},{"name":"Sketchfab_Scene_Plane_whitew shadow_0","primitives":[{"attributes":{"NORMAL":12,"POSITION":10,"TANGENT":11,"TEXCOORD_0":13},"indices":14,"material":2,"mode":4}]},{"name":"Sketchfab_Scene_Plane_Material_001_0","primitives":[{"attributes":{"NORMAL":17,"POSITION":15,"TANGENT":16,"TEXCOORD_0":18},"indices":19,"material":3,"mode":4}]},{"name":"Sketchfab_Scene_Plane_black_0","primitives":[{"attributes":{"NORMAL":22,"POSITION":20,"TANGENT":21,"TEXCOORD_0":23},"indices":24,"material":4,"mode":4}]},{"name":"Sketchfab_Scene_Plane_white_0","primitives":[{"attributes":{"NORMAL":27,"POSITION":25,"TANGENT":26,"TEXCOORD_0":28},"indices":29,"material":5,"mode":4}]},{"name":"Sketchfab_Scene_Plane_ring shadow_0","primitives":[{"attributes":{"NORMAL":32,"POSITION":30,"TANGENT":31,"TEXCOORD_0":33},"indices":34,"material":6,"mode":4}]},{"name":"Sketchfab_Scene_Plane_ringen_0","primitives":[{"attributes":{"NORMAL":37,"POSITION":35,"TANGENT":36,"TEXCOORD_0":38},"indices":39,"material":7,"mode":4}]},{"name":"Sketchfab_Scene_small_Cardboard_Box_1_small_Cardboard_Box_Mat_0","primitives":[{"attributes":{"NORMAL":42,"POSITION":40,"TANGENT":41,"TEXCOORD_0":43},"indices":44,"material":8,"mode":4}]},{"name":"Sketchfab_Scene_Plane_most fur_02","primitives":[{"attributes":{"NORMAL":2,"POSITION":0,"TANGENT":1,"TEXCOORD_0":3},"indices":4,"material":0,"mode":4}]},{"name":"Sketchfab_Scene_Plane_fur shadow_02","primitives":[{"attributes":{"NORMAL":7,"POSITION":5,"TANGENT":6,"TEXCOORD_0":8},"indices":9,"material":1,"mode":4}]},{"name":"Sketchfab_Scene_Plane_whitew shadow_02","primitives":[{"attributes":{"NORMAL":12,"POSITION":10,"TANGENT":11,"TEXCOORD_0":13},"indices":14,"material":2,"mode":4}]},{"name":"Sketchfab_Scene_Plane_Material_001_02","primitives":[{"attributes":{"NORMAL":17,"POSITION":15,"TANGENT":16,"TEXCOORD_0":18},"indices":19,"material":3,"mode":4}]},{"name":"Sketchfab_Scene_Plane_black_02","primitives":[{"attributes":{"NORMAL":22,"POSITION":20,"TANGENT":21,"TEXCOORD_0":23},"indices":24,"material":4,"mode":4}]},{"name":"Sketchfab_Scene_Plane_white_02","primitives":[{"attributes":{"NORMAL":27,"POSITION":25,"TANGENT":26,"TEXCOORD_0":28},"indices":29,"material":5,"mode":4}]},{"name":"Sketchfab_Scene_Plane_ring shadow_02","primitives":[{"attributes":{"NORMAL":32,"POSITION":30,"TANGENT":31,"TEXCOORD_0":33},"indices":34,"material":6,"mode":4}]},{"name":"Sketchfab_Scene_Plane_ringen_02","primitives":[{"attributes":{"NORMAL":37,"POSITION":35,"TANGENT":36,"TEXCOORD_0":38},"indices":39,"material":7,"mode":4}]},{"primitives":[{"attributes":{"NORMAL":47,"POSITION":45,"TANGENT":46,"TEXCOORD_0":48},"indices":49,"mode":4}]}],"nodes":[{"children":[1,76,77,78,80],"extensions":{"OMI_physics_body":{"motion":{"type":"kinematic"}}},"name":"car"},{"children":[2],"name":"AnimationPlayer"},{"children":[3,36,43],"name":"raccoons","rotation":[-0.22236761450767517,-0.7022883296012878,0.20414111018180847,0.6447247862815857],"scale":[0.6000000238418579,0.5999999642372131,0.5999999642372131],"translation":[-0.13099002838134766,0.4645519554615021,1.3491785526275635]},{"children":[4],"name":"Sketchfab_Scene2"},{"children":[5],"name":"Sketchfab_model","rotation":[-0.7071067690849304,0.0,0.0,0.7071067690849304]},{"children":[6],"name":"91f1633a31214c6aaea93ec4ca0d6fb8_fbx","rotation":[0.7071067690849304,0.0,0.0,0.7071067690849304],"scale":[0.009999999776482582,0.009999999776482582,0.009999999776482582]},{"children":[7,10,12,21,24,27,30,33],"name":"RootNode"},{"children":[8],"matrix":[-29.086477279663086,-5.518906593322754,-95.51712036132813,0.0,56.63930892944336,79.46723175048828,-21.83912467956543,0.0,77.1100845336914,-60.45246505737305,-19.988346099853516,0.0,-365.4993591308594,677.6204223632813,15.493027687072754,1.0],"name":"Light"},{"children":[9],"name":"Object_4","rotation":[0.7071067690849304,0.0,0.0,0.7071067690849304]},{"name":"Object_5"},{"children":[11],"matrix":[-65.15580749511719,-44.52714157104492,-61.417049407958984,0.0,-32.4013557434082,89.5395736694336,-30.542085647583008,0.0,68.59207153320313,1.275531485589454e-05,-72.76761627197266,0.0,735.88916015625,495.8309326171875,692.5791015625,1.0],"name":"Camera"},{"name":"Object_7"},{"children":[13,14,15,16,17,18,19,20],"name":"Plane","scale":[58.01588821411133,58.01588821411133,58.01588821411133],"translation":[-119.86556243896484,214.66416931152344,0.0]},{"mesh":0,"name":"Plane_most fur_0"},{"mesh":1,"name":"Plane_fur shadow_0"},{"mesh":2,"name":"Plane_whitew shadow_0"},{"mesh":3,"name":"Plane_Material_001_0"},{"mesh":4,"name":"Plane_black_0"},{"mesh":5,"name":"Plane_white_0"},{"mesh":6,"name":"Plane_ring shadow_0"},{"mesh":7,"name":"Plane_ringen_0"},{"children":[22],"matrix":[-29.086477279663086,-5.518906593322754,-95.51712036132813,0.0,56.63930892944336,79.46723175048828,-21.83912467956543,0.0,77.1100845336914,-60.45246505737305,-19.988346099853516,0.0,-463.17340087890625,1034.6785888671875,-3.8633108139038086,1.0],"name":"Light_001"},{"children":[23],"name":"Object_18","rotation":[0.7071067690849304,0.0,0.0,0.7071067690849304]},{"name":"Object_19"},{"children":[25],"matrix":[95.89356994628906,-5.518906593322754,-27.82022476196289,0.0,21.08786964416504,79.46723175048828,56.92329788208008,0.0,18.96641731262207,-60.45246887207031,77.36778259277344,0.0,-2.9358670711517334,1053.798828125,404.6479187011719,1.0],"name":"Light_002"},{"children":[26],"name":"Object_21","rotation":[0.7071067690849304,0.0,0.0,0.7071067690849304]},{"name":"Object_22"},{"children":[28],"matrix":[95.89356994628906,-5.518906593322754,-27.82022476196289,0.0,21.08786964416504,79.46723175048828,56.92329788208008,0.0,18.96641731262207,-60.45246887207031,77.36778259277344,0.0,10.716120719909668,1034.6785888671875,-409.494873046875,1.0],"name":"Light_003"},{"children":[29],"name":"Object_24","rotation":[0.7071067690849304,0.0,0.0,0.7071067690849304]},{"name":"Object_25"},{"children":[31],"matrix":[95.89356994628906,-5.518906593322754,-27.82022476196289,0.0,21.08786964416504,79.46723175048828,56.92329788208008,0.0,18.96641731262207,-60.45246887207031,77.36778259277344,0.0,-330.8466796875,-480.5880432128906,-0.022840499877929688,1.0],"name":"Light_004"},{"children":[32],"name":"Object_27","rotation":[0.7071067690849304,0.0,0.0,0.7071067690849304]},{"name":"Object_28"},{"children":[34],"matrix":[95.89356994628906,-5.518906593322754,-27.82022476196289,0.0,21.08786964416504,79.46723175048828,56.92329788208008,0.0,18.96641731262207,-60.45246887207031,77.36778259277344,0.0,-5.590539932250977,-480.5880432128906,-0.022840499877929688,1.0],"name":"Light_005"},{"children":[35],"name":"Object_30","rotation":[0.7071067690849304,0.0,0.0,0.7071067690849304]},{"name":"Object_31"},{"children":[37],"name":"Sketchfab_Scene","rotation":[-0.20463547110557556,-0.6462860107421875,-0.22191284596920013,0.7008519172668457],"scale":[4.5,4.5,4.499999046325684],"translation":[3.7777678966522217,-6.76649284362793,-17.577157974243164]},{"children":[38],"name":"Sketchfab_model2","rotation":[-0.7071067690849304,0.0,0.0,0.7071067690849304],"scale":[18.70280647277832,18.70280647277832,18.70280647277832]},{"children":[39],"name":"Cardboard box_fbx","rotation":[0.7071067690849304,0.0,0.0,0.7071067690849304],"scale":[0.009999999776482582,0.009999999776482582,0.009999999776482582]},{"children":[40],"name":"RootNode2"},{"children":[41],"name":"Cardboard_Boxes"},{"children":[42],"name":"small_Cardboard_Box_1"},{"mesh":8,"name":"small_Cardboard_Box_1_small_Cardboard_Box_Mat_0"},{"children":[44],"name":"Sketchfab_Scene3","rotation":[-0.012926178053021431,0.05651857703924179,-0.17336077988147736,0.9831503629684448],"translation":[0.3225677013397217,1.8076024055480957,-0.025280937552452087]},{"children":[45],"name":"Sketchfab_model3","rotation":[-0.7071067690849304,0.0,0.0,0.7071067690849304]},{"children":[46],"name":"91f1633a31214c6aaea93ec4ca0d6fb8_fbx2","rotation":[0.7071067690849304,0.0,0.0,0.7071067690849304],"scale":[0.009999999776482582,0.009999999776482582,0.009999999776482582]},{"children":[47,50,52,61,64,67,70,73],"name":"RootNode3"},{"children":[48],"matrix":[-29.086477279663086,-5.518906593322754,-95.51712036132813,0.0,56.63930892944336,79.46723175048828,-21.83912467956543,0.0,77.1100845336914,-60.45246505737305,-19.988346099853516,0.0,-365.4993591308594,677.6204223632813,15.493027687072754,1.0],"name":"Light2"},{"children":[49],"name":"Object_42","rotation":[0.7071067690849304,0.0,0.0,0.7071067690849304]},{"name":"Object_52"},{"children":[51],"matrix":[-65.15580749511719,-44.52714157104492,-61.417049407958984,0.0,-32.4013557434082,89.5395736694336,-30.542085647583008,0.0,68.59207153320313,1.275531485589454e-05,-72.76761627197266,0.0,735.88916015625,495.8309326171875,692.5791015625,1.0],"name":"Camera2"},{"name":"Object_72"},{"children":[53,54,55,56,57,58,59,60],"name":"Plane2","scale":[58.01588821411133,58.01588821411133,58.01588821411133],"translation":[-119.86556243896484,214.66416931152344,0.0]},{"mesh":9,"name":"Plane_most fur_02"},{"mesh":10,"name":"Plane_fur shadow_02"},{"mesh":11,"name":"Plane_whitew shadow_02"},{"mesh":12,"name":"Plane_Material_001_02"},{"mesh":13,"name":"Plane_black_02"},{"mesh":14,"name":"Plane_white_02"},{"mesh":15,"name":"Plane_ring shadow_02"},{"mesh":16,"name":"Plane_ringen_02"},{"children":[62],"matrix":[-29.086477279663086,-5.518906593322754,-95.51712036132813,0.0,56.63930892944336,79.46723175048828,-21.83912467956543,0.0,77.1100845336914,-60.45246505737305,-19.988346099853516,0.0,-463.17340087890625,1034.6785888671875,-3.8633108139038086,1.0],"name":"Light_0012"},{"children":[63],"name":"Object_182","rotation":[0.7071067690849304,0.0,0.0,0.7071067690849304]},{"name":"Object_192"},{"children":[65],"matrix":[95.89356994628906,-5.518906593322754,-27.82022476196289,0.0,21.08786964416504,79.46723175048828,56.92329788208008,0.0,18.96641731262207,-60.45246887207031,77.36778259277344,0.0,-2.9358670711517334,1053.798828125,404.6479187011719,1.0],"name":"Light_0022"},{"children":[66],"name":"Object_212","rotation":[0.7071067690849304,0.0,0.0,0.7071067690849304]},{"name":"Object_222"},{"children":[68],"matrix":[95.89356994628906,-5.518906593322754,-27.82022476196289,0.0,21.08786964416504,79.46723175048828,56.92329788208008,0.0,18.96641731262207,-60.45246887207031,77.36778259277344,0.0,10.716120719909668,1034.6785888671875,-409.494873046875,1.0],"name":"Light_0032"},{"children":[69],"name":"Object_242","rotation":[0.7071067690849304,0.0,0.0,0.7071067690849304]},{"name":"Object_252"},{"children":[71],"matrix":[95.89356994628906,-5.518906593322754,-27.82022476196289,0.0,21.08786964416504,79.46723175048828,56.92329788208008,0.0,18.96641731262207,-60.45246887207031,77.36778259277344,0.0,-330.8466796875,-480.5880432128906,-0.022840499877929688,1.0],"name":"Light_0042"},{"children":[72],"name":"Object_272","rotation":[0.7071067690849304,0.0,0.0,0.7071067690849304]},{"name":"Object_282"},{"children":[74],"matrix":[95.89356994628906,-5.518906593322754,-27.82022476196289,0.0,21.08786964416504,79.46723175048828,56.92329788208008,0.0,18.96641731262207,-60.45246887207031,77.36778259277344,0.0,-5.590539932250977,-480.5880432128906,-0.022840499877929688,1.0],"name":"Light_0052"},{"children":[75],"name":"Object_302","rotation":[0.7071067690849304,0.0,0.0,0.7071067690849304]},{"name":"Object_312"},{"mesh":17,"name":"MeshInstance3D","translation":[0.0,0.5,0.0]},{"extensions":{"OMI_physics_body":{"collider":{"shape":0}}},"name":"CollisionShape3D","translation":[0.0,1.304171085357666,0.03689694404602051]},{"camera":0,"children":[79],"name":"Camera3D","rotation":[-0.2718939483165741,0.0,0.0,0.962327241897583],"translation":[0.0,6.728747367858887,6.376828193664551]},{"name":"SpringArm3D","translation":[4.383998870849609,-2.0053932666778564,5.3468170166015625]},{"name":"EngineSound"}],"samplers":[{"magFilter":9729,"minFilter":9987,"wrapS":10497,"wrapT":10497}],"scene":0,"scenes":[{"nodes":[0]}],"textures":[{"sampler":0,"source":0},{"sampler":0,"source":1},{"sampler":0,"source":2}]}